# xmcd CD database file
#
# Track frame offsets:
#	150
#	16537
#	37106
#	48856
#	64766
#	83835
#	100711
#	114721
#	135519
#	159136
#	176971
#	190646
#	214216
#
# Disc length: 2982 seconds
#
# Revision: 0
# Processed by: cddbd v1.4PL0 Copyright (c) Steve Scherf et al.
# Submitted via: CDex 1.40Release
#
DISCID=a20ba40d
DTITLE=Brother Yousef - The Fatt-Back Bluesman
DYEAR=1999
DGENRE=Blues
TTITLE0=Get Outta Town
TTITLE1=Blues Is My Story
TTITLE2=Ife's Blues
TTITLE3=Power Of The Blues
TTITLE4=Love and The Blues
TTITLE5=Back At The Crossroads
TTITLE6=Bottom Blues
TTITLE7=Shoes Of Another Man
TTITLE8=Freedom Train Blues
TTITLE9=What's Up Blues
TTITLE10=Bakersfield Blues
TTITLE11=Sweet Woman Tonite
TTITLE12=Lucky Thirteen Blues
EXTD=YEAR: 1999 ID3G: 0
EXTT0=
EXTT1=
EXTT2=
EXTT3=
EXTT4=
EXTT5=
EXTT6=
EXTT7=
EXTT8=
EXTT9=
EXTT10=
EXTT11=
EXTT12=
PLAYORDER=
